<?xml version="1.0" standalone="no"?>
<!DOCTYPE svg PUBLIC "-//W3C//DTD SVG 20010904//EN"
 "http://www.w3.org/TR/2001/REC-SVG-20010904/DTD/svg10.dtd">
<svg version="1.0" xmlns="http://www.w3.org/2000/svg"
 width="636.000000pt" height="636.000000pt" viewBox="0 0 636.000000 636.000000"
 preserveAspectRatio="xMidYMid meet">
<metadata>
Created by potrace 1.11, written by Peter Selinger 2001-2013
</metadata>
<g transform="translate(0.000000,636.000000) scale(0.100000,-0.100000)"
fill="#000000" stroke="none">
<path d="M2790 6162 c0 -6 -17 -12 -37 -14 -27 -2 -37 -7 -35 -17 3 -12 0 -12
-12 -1 -11 8 -16 9 -16 1 0 -6 -7 -11 -15 -11 -8 0 -15 -6 -15 -12 0 -9 -4 -8
-10 2 -9 13 -10 13 -10 0 0 -13 -1 -13 -10 0 -5 8 -10 10 -10 3 0 -6 -9 -9
-20 -6 -12 3 -31 -5 -51 -21 -17 -14 -35 -24 -40 -20 -5 3 -9 0 -9 -6 0 -6 -6
-8 -12 -4 -7 4 -10 4 -6 -1 11 -12 -11 -45 -30 -45 -10 0 -23 -5 -30 -12 -9
-9 -12 -9 -12 0 0 15 -37 -2 -58 -27 -11 -13 -12 -13 -6 -1 10 20 1 12 -35
-34 -17 -21 -31 -37 -31 -34 0 3 -27 -21 -61 -54 -33 -32 -66 -55 -71 -52 -7
4 -8 2 -4 -4 10 -16 -43 -61 -71 -62 -25 0 -36 -13 -39 -50 -2 -14 -15 -35
-29 -47 -14 -13 -22 -23 -18 -23 4 0 1 -5 -7 -10 -9 -6 -10 -10 -3 -10 8 0 9
-9 3 -30 -5 -16 -6 -30 -2 -30 4 0 1 -4 -7 -9 -16 -10 -23 -51 -9 -51 5 0 4
-8 -1 -19 -6 -10 -7 -21 -4 -25 3 -3 2 -6 -4 -6 -10 0 -38 -52 -31 -58 1 -2
-5 -8 -15 -13 -9 -6 -15 -14 -12 -20 4 -5 2 -9 -3 -9 -13 0 -22 -39 -12 -45 5
-3 6 -15 1 -27 -4 -12 -5 -37 -1 -54 5 -20 3 -37 -3 -43 -8 -8 -7 -11 3 -11
10 0 9 -4 -4 -13 -12 -9 -16 -21 -12 -40 2 -15 1 -29 -4 -32 -5 -3 -6 -13 -3
-22 4 -10 2 -14 -4 -10 -7 5 -9 0 -6 -13 3 -11 10 -20 15 -20 6 0 8 -7 4 -15
-3 -8 -2 -15 2 -15 4 0 7 -16 7 -35 0 -19 -3 -35 -7 -35 -3 0 -4 -9 -1 -20 3
-12 0 -20 -7 -20 -10 0 -10 -3 -1 -14 8 -10 9 -16 1 -21 -7 -4 -7 -12 0 -24 5
-10 7 -21 4 -23 -2 -3 -7 -16 -9 -28 -3 -13 -10 -27 -17 -32 -10 -6 -10 -8 1
-8 11 0 11 -3 1 -15 -10 -12 -10 -15 0 -15 10 0 10 -3 0 -15 -10 -12 -9 -16 4
-21 9 -3 16 -10 16 -16 0 -5 -6 -6 -12 -2 -7 4 -5 -2 5 -13 12 -14 15 -23 8
-28 -6 -3 -11 -11 -11 -16 0 -6 5 -7 11 -3 8 4 10 -11 7 -49 -2 -33 1 -55 7
-54 6 1 9 -4 7 -10 -1 -7 2 -13 8 -13 5 0 6 -7 3 -17 -4 -11 -3 -14 5 -9 8 5
12 -5 12 -33 0 -24 5 -41 11 -41 8 0 8 -5 -1 -15 -10 -12 -10 -15 0 -15 9 0
10 -3 1 -13 -8 -10 -7 -17 1 -25 9 -9 9 -12 -1 -12 -10 0 -11 -3 -2 -14 9 -11
9 -15 -1 -19 -11 -4 -10 -6 0 -6 7 -1 11 -5 7 -10 -3 -5 0 -15 7 -23 17 -18
23 -124 7 -134 -8 -5 -9 -3 -4 7 7 12 6 12 -9 0 -21 -17 -56 -22 -56 -8 0 5
-6 4 -13 -2 -8 -6 -18 -7 -22 -3 -5 4 -5 2 -1 -5 4 -7 -2 -14 -15 -18 -11 -4
-18 -9 -16 -12 3 -2 1 -18 -3 -34 -6 -19 -5 -29 2 -29 7 0 6 -5 -1 -14 -8 -9
-8 -16 -2 -20 6 -4 7 -15 2 -29 -9 -23 1 -61 18 -72 8 -4 8 -12 1 -25 -7 -13
-6 -21 5 -30 8 -7 17 -28 21 -47 4 -19 13 -37 21 -40 10 -4 11 -8 4 -12 -7 -5
-4 -15 9 -29 12 -12 17 -22 13 -22 -4 0 -1 -5 7 -10 11 -7 11 -10 2 -10 -10 0
-10 -4 0 -22 7 -13 11 -26 10 -30 -1 -5 3 -8 8 -8 7 0 7 -6 1 -18 -6 -11 -6
-24 -1 -32 6 -9 5 -17 -3 -22 -9 -6 -9 -8 1 -8 7 0 11 -4 7 -9 -3 -5 -1 -12 5
-16 6 -4 8 -11 5 -16 -4 -5 -2 -9 2 -9 11 0 10 -41 -1 -59 -5 -7 -5 -16 0 -20
13 -9 16 -31 4 -31 -11 0 -4 -11 33 -51 9 -10 17 -23 17 -27 0 -5 12 -14 26
-20 14 -7 23 -8 19 -2 -9 15 8 12 34 -6 15 -11 21 -23 18 -35 -3 -11 0 -22 5
-26 7 -4 8 -1 3 7 -5 9 -4 11 3 6 7 -4 12 -29 12 -57 0 -29 4 -49 11 -49 8 0
8 -5 -1 -15 -9 -11 -9 -15 -1 -15 7 0 10 -4 7 -9 -3 -4 5 -21 19 -37 18 -21
21 -31 13 -41 -7 -9 -7 -13 1 -13 6 0 11 -9 11 -21 0 -11 5 -17 10 -14 6 3 10
-1 10 -9 0 -9 8 -16 18 -16 14 0 15 -2 2 -10 -14 -9 -7 -14 13 -11 5 1 7 -4 4
-11 -2 -7 9 -30 25 -50 16 -21 26 -38 20 -38 -5 0 -6 -19 -2 -45 4 -26 3 -48
-4 -55 -5 -5 -7 -10 -4 -10 4 0 3 -14 -2 -30 -6 -20 -5 -28 1 -24 6 4 9 -2 7
-14 -2 -11 5 -29 15 -40 10 -11 14 -23 9 -26 -6 -3 -7 -20 -2 -41 4 -19 4 -35
0 -35 -4 0 -4 -18 0 -40 4 -22 4 -43 0 -45 -4 -3 -4 -21 0 -40 4 -19 5 -35 1
-35 -4 0 -6 -14 -3 -30 3 -20 -2 -37 -13 -50 -10 -11 -15 -23 -12 -26 3 -4 -1
-21 -10 -38 -19 -34 -19 -37 -21 -84 -1 -18 -6 -31 -10 -28 -5 3 -15 -5 -23
-16 -8 -12 -22 -29 -31 -39 -10 -10 -13 -21 -8 -24 5 -3 7 -12 4 -20 -4 -8
-10 -13 -14 -10 -5 3 -11 -4 -15 -15 -4 -11 -11 -18 -16 -15 -5 4 -9 2 -9 -4
0 -6 -6 -8 -14 -5 -9 3 -17 -3 -21 -15 -3 -12 -15 -21 -26 -21 -10 0 -19 -4
-19 -9 0 -4 -11 -6 -25 -3 -18 3 -25 0 -23 -9 2 -8 -2 -13 -9 -12 -6 1 -14 -4
-17 -12 -3 -8 -1 -15 4 -15 6 0 10 -9 10 -21 0 -14 -5 -19 -14 -16 -8 3 -17
-1 -20 -9 -4 -10 -15 -14 -35 -11 -25 4 -29 2 -26 -14 2 -11 -4 -20 -16 -24
-11 -4 -17 -9 -15 -13 2 -4 -2 -13 -10 -20 -8 -7 -14 -9 -14 -5 0 4 -11 -9
-25 -28 -14 -19 -29 -34 -33 -34 -4 0 -6 -3 -5 -7 2 -5 -5 -8 -14 -8 -9 0 -14
-2 -11 -6 7 -7 -45 -61 -54 -56 -5 2 -8 -4 -8 -12 0 -8 -5 -18 -12 -22 -7 -5
-8 -3 -3 7 8 12 6 12 -8 0 -9 -7 -15 -17 -12 -21 2 -4 -6 -5 -20 -3 -16 4 -32
-3 -49 -20 -17 -17 -28 -21 -35 -14 -8 8 -11 7 -11 -2 0 -7 -5 -9 -11 -5 -6 3
-15 1 -19 -5 -4 -7 -13 -13 -21 -14 -8 -2 -20 -6 -26 -10 -7 -5 -13 -6 -13 -2
0 3 -9 1 -20 -5 -11 -6 -18 -15 -15 -20 4 -6 -3 -6 -19 -1 -18 7 -26 6 -30 -4
-3 -8 -16 -12 -30 -11 -14 2 -26 0 -26 -3 0 -3 -20 -5 -45 -3 -30 3 -45 0 -45
-8 0 -6 -5 -8 -10 -5 -5 3 -10 1 -10 -6 0 -8 -4 -8 -15 1 -12 10 -15 10 -15 0
0 -7 -7 -10 -16 -6 -8 3 -13 2 -10 -3 3 -5 -1 -14 -9 -21 -8 -7 -15 -9 -15 -5
0 5 -9 0 -19 -9 -11 -10 -25 -15 -30 -11 -6 3 -11 1 -11 -5 0 -6 -4 -8 -10 -5
-6 3 -10 1 -10 -5 0 -6 -4 -9 -9 -6 -5 3 -11 -1 -15 -9 -3 -8 -14 -15 -24 -15
-10 0 -24 -6 -31 -12 -11 -11 -12 -10 -6 0 6 11 3 12 -14 3 -11 -7 -21 -16
-21 -22 0 -6 -4 -7 -10 -4 -5 3 -10 1 -10 -4 0 -6 -6 -11 -14 -11 -8 0 -16 -4
-18 -10 -2 -5 -14 -11 -27 -13 -14 -2 -27 -9 -29 -15 -2 -7 -8 -10 -12 -7 -5
3 -18 -3 -28 -13 -10 -10 -24 -16 -30 -14 -7 2 -15 -3 -18 -12 -3 -9 -10 -13
-15 -10 -5 3 -9 0 -9 -5 0 -6 -7 -11 -15 -11 -9 0 -15 -9 -15 -24 0 -14 -7
-26 -18 -28 -9 -3 -32 -33 -50 -68 -18 -34 -49 -79 -68 -99 -18 -20 -34 -40
-34 -44 0 -5 -4 -6 -9 -2 -5 3 -12 -4 -16 -15 -4 -11 -10 -18 -15 -15 -5 3
-11 -4 -15 -15 -4 -11 -10 -18 -15 -15 -4 3 -14 -3 -21 -12 -12 -14 -12 -16 1
-8 8 5 -2 -7 -22 -26 -33 -31 -35 -36 -22 -53 10 -14 11 -23 3 -33 -6 -7 -8
-13 -3 -13 5 0 -2 -7 -14 -16 -12 -8 -22 -22 -22 -30 0 -8 -4 -14 -10 -14 -5
0 -12 -16 -16 -35 -3 -19 -10 -35 -16 -35 -5 0 -6 -5 -3 -10 3 -6 -1 -13 -9
-16 -9 -3 -13 -10 -10 -15 3 -5 0 -9 -5 -9 -6 0 -11 -7 -11 -15 0 -8 -5 -15
-11 -15 -8 0 -8 -4 -1 -12 11 -14 21 -168 11 -168 -3 0 -5 -11 -4 -25 2 -14
-2 -25 -8 -25 -8 0 -8 -3 -2 -8 6 -4 10 -16 10 -27 0 -11 -4 -23 -10 -27 -6
-5 -5 -8 2 -8 7 0 10 -7 7 -15 -5 -13 334 -15 3014 -15 2675 0 3021 2 3026 15
3 8 1 15 -3 15 -11 0 -9 19 2 37 5 8 3 13 -3 13 -7 0 -8 6 -2 18 5 9 6 26 2
37 -4 11 -3 26 2 33 7 8 7 12 -2 12 -10 0 -10 3 0 15 7 8 9 15 4 15 -11 0 -11
80 0 98 4 7 2 12 -4 12 -8 0 -7 6 1 21 6 12 7 24 3 28 -11 7 -15 41 -5 41 4 0
7 9 7 20 0 11 -4 20 -8 20 -7 0 -3 34 7 50 3 6 2 10 -4 10 -10 0 -9 19 2 38 5
7 3 12 -3 12 -7 0 -7 7 1 22 7 12 8 23 3 25 -10 3 -10 65 0 81 4 7 2 12 -5 12
-8 0 -8 4 1 15 9 11 9 15 1 15 -7 0 -9 5 -6 11 10 15 13 69 4 69 -8 0 -4 34 6
50 3 6 2 10 -4 10 -11 0 -9 19 3 39 5 8 4 16 -4 21 -13 8 -13 16 1 43 6 10 6
17 0 17 -10 0 -9 19 2 38 5 7 3 12 -3 12 -7 0 -7 7 1 22 7 12 8 23 3 25 -10 3
-10 65 0 81 4 7 2 12 -5 12 -8 0 -8 4 1 15 7 8 8 15 4 15 -5 0 -9 15 -9 32 0
27 -4 32 -19 30 -10 -2 -15 1 -12 6 3 5 -3 12 -14 15 -10 3 -21 0 -24 -7 -3
-7 -5 -7 -5 2 -1 6 -7 12 -14 12 -7 0 -21 14 -31 31 -11 19 -23 28 -32 25 -9
-3 -12 -1 -9 4 3 6 -1 10 -10 10 -10 0 -13 5 -9 12 5 7 2 9 -9 5 -9 -3 -18 -1
-21 6 -3 8 -5 9 -5 1 -1 -8 -12 -9 -36 -4 -19 4 -35 5 -35 1 0 -3 -22 -4 -50
-3 -27 2 -50 8 -50 14 0 5 -4 7 -9 3 -5 -3 -16 2 -24 10 -9 8 -21 15 -27 15
-20 0 -140 62 -140 72 0 6 -7 8 -15 4 -8 -3 -21 1 -29 9 -8 8 -18 15 -23 15
-4 0 -14 9 -21 20 -7 11 -19 20 -27 20 -8 0 -15 5 -15 10 0 6 -9 10 -21 10
-11 0 -17 5 -14 10 3 6 -3 10 -15 10 -12 0 -18 5 -15 10 5 9 -23 15 -47 11 -5
0 -8 4 -8 9 0 6 -7 10 -15 10 -8 0 -15 4 -15 9 0 5 -13 14 -30 21 -16 7 -30
17 -30 22 0 5 -4 6 -10 3 -6 -3 -10 -1 -10 4 0 6 -5 11 -11 11 -5 0 -7 -6 -4
-12 4 -7 1 -6 -7 3 -7 8 -27 22 -45 29 -17 8 -29 19 -25 25 3 5 -3 3 -13 -5
-11 -9 -16 -10 -11 -2 4 7 1 12 -8 12 -9 0 -16 5 -16 11 0 5 -4 8 -9 5 -5 -3
-11 1 -15 9 -3 8 -12 15 -21 15 -8 0 -15 5 -15 11 0 5 -4 8 -9 5 -5 -4 -12 0
-14 6 -4 10 -6 9 -6 -1 -1 -9 -8 -6 -21 9 -11 13 -20 20 -20 16 0 -4 -10 -1
-22 6 -13 7 -26 11 -30 10 -5 -1 -8 3 -8 8 0 6 -11 10 -25 10 -14 0 -25 6 -25
13 0 7 -22 23 -50 35 -27 12 -50 27 -50 32 0 6 -11 8 -25 6 -15 -3 -24 0 -22
7 1 7 -6 11 -15 9 -11 -2 -18 3 -18 13 0 9 -4 14 -9 11 -5 -3 -28 7 -52 23
-24 16 -46 28 -50 25 -4 -2 -10 3 -13 12 -3 8 -11 12 -17 9 -6 -4 -21 3 -35
16 -16 15 -24 18 -24 9 0 -9 -7 -6 -21 8 -11 12 -24 20 -30 17 -5 -4 -9 -1 -9
6 0 7 -3 9 -6 6 -4 -3 -15 5 -26 18 -10 13 -25 22 -32 19 -8 -3 -20 3 -27 13
-8 10 -19 18 -24 18 -14 0 -58 37 -71 60 -5 10 -18 19 -27 21 -9 1 -24 9 -33
18 -8 9 -20 16 -25 16 -6 0 -7 5 -4 10 3 6 -1 10 -9 10 -9 0 -16 7 -16 16 0 8
-4 13 -9 9 -5 -3 -12 4 -16 15 -3 11 -12 20 -20 20 -8 0 -17 9 -20 20 -3 11
-13 20 -21 20 -8 0 -14 7 -14 16 0 8 -5 12 -10 9 -6 -3 -10 1 -10 10 0 9 -4
14 -8 11 -5 -3 -15 6 -22 19 -7 14 -21 27 -31 30 -11 4 -18 19 -21 45 -2 22 0
40 4 40 3 0 3 14 -2 30 -5 17 -5 30 0 30 5 0 5 13 0 30 -5 16 -5 32 -1 34 4 3
6 18 3 34 -2 17 2 35 10 43 15 14 18 21 18 40 0 5 4 8 8 5 5 -3 9 11 10 32 1
20 6 38 10 40 5 1 7 14 4 29 -4 20 -2 24 8 18 10 -6 12 -4 7 8 -4 10 -1 17 6
17 7 0 8 3 2 8 -13 9 -19 35 -6 28 12 -8 21 17 21 56 0 17 3 29 6 25 3 -3 17
-2 30 3 13 5 24 6 24 1 0 -15 43 -4 59 15 9 11 19 21 24 22 4 1 8 5 9 10 1 4
15 19 31 34 15 16 22 28 15 28 -7 1 -3 6 10 13 12 7 19 16 15 21 -9 9 -4 79 7
86 5 3 9 32 11 65 1 33 6 66 12 73 6 8 6 12 -2 12 -12 0 2 32 26 58 7 7 20 30
30 50 9 20 19 39 22 42 9 7 15 32 15 62 1 14 4 24 8 22 4 -3 7 4 7 13 0 23 5
45 13 58 4 6 3 17 -2 25 -5 8 -5 22 1 32 6 12 6 18 0 18 -6 0 -8 6 -5 14 3 8
0 17 -5 21 -6 3 -8 12 -5 18 4 7 4 9 -1 5 -4 -4 -15 0 -24 10 -16 18 -81 27
-81 10 0 -4 -13 -7 -30 -6 -22 2 -32 9 -39 30 -7 19 -7 28 0 28 6 0 8 4 4 9
-3 5 -1 12 5 16 6 4 8 11 5 16 -4 5 -1 9 5 9 6 0 8 4 5 10 -3 5 -2 25 4 44 6
24 6 36 -2 39 -6 2 0 14 13 27 17 17 20 27 13 39 -12 19 3 85 17 76 6 -4 10
-2 10 4 0 5 9 8 20 6 11 -2 18 0 15 6 -4 5 -1 9 5 9 7 0 5 6 -4 15 -8 8 -20
15 -26 15 -6 0 -8 5 -5 10 3 6 0 10 -7 10 -10 0 -10 2 1 9 11 7 11 9 0 14 -11
4 -11 6 -1 6 9 1 10 6 4 19 -5 9 -9 29 -8 45 1 15 -1 27 -5 27 -9 0 -6 21 4
38 5 7 3 12 -3 12 -7 0 -8 6 -2 18 5 9 6 26 2 37 -4 11 -3 26 2 33 6 6 7 12 4
12 -4 0 -2 8 3 18 7 13 6 23 -2 32 -9 9 -9 14 -1 17 7 2 9 17 4 44 -4 21 -4
41 0 44 4 2 5 16 2 30 -3 18 2 33 16 48 13 14 20 32 18 50 -2 15 0 27 3 27 4
0 7 9 7 20 0 11 -5 20 -11 20 -5 0 -3 5 5 10 10 6 11 10 3 10 -9 0 -10 7 -3
26 6 14 8 30 4 35 -3 5 0 9 6 9 7 0 8 5 3 13 -4 6 -8 21 -9 32 -1 33 -14 63
-29 69 -8 3 -15 13 -15 21 0 9 -4 13 -10 10 -5 -3 -10 1 -10 10 0 9 -4 13 -10
10 -5 -3 -10 0 -10 9 0 8 -5 16 -10 18 -6 2 -12 13 -13 25 0 12 -3 20 -5 18
-6 -6 -32 22 -32 34 0 6 -4 11 -8 11 -12 0 -44 59 -37 70 3 6 1 10 -6 10 -8 0
-8 4 1 15 9 11 9 15 1 15 -7 0 -9 5 -5 11 4 7 -2 9 -17 7 -17 -2 -32 6 -51 30
-15 18 -29 33 -33 32 -9 -1 -33 25 -29 32 2 4 -5 9 -16 13 -11 3 -20 12 -20
20 0 8 -9 17 -20 20 -11 3 -20 12 -20 18 0 7 -13 21 -29 32 -16 10 -27 23 -24
28 3 4 -5 11 -17 14 -12 3 -19 11 -16 19 3 8 0 13 -7 11 -7 -1 -12 10 -12 30
0 17 -2 30 -4 28 -5 -6 -29 19 -25 26 2 3 -8 12 -21 19 -14 7 -25 19 -25 27 0
7 -4 13 -8 13 -5 0 -19 9 -32 20 -16 14 -26 17 -31 9 -5 -8 -8 -7 -12 2 -4 11
-6 11 -6 1 -1 -9 -6 -10 -20 -3 -10 6 -21 7 -25 4 -3 -3 -6 2 -6 11 0 13 -5
16 -17 12 -9 -4 -19 -2 -23 4 -4 6 -13 12 -21 14 -8 1 -24 8 -36 14 -13 7 -23
9 -23 4 0 -5 -22 -6 -50 -2 -33 4 -50 3 -50 -4 0 -6 -5 -4 -10 4 -5 8 -10 11
-10 5 0 -5 -18 -10 -40 -10 -22 0 -40 4 -40 9 0 5 -3 7 -6 3 -4 -3 -13 1 -22
9 -12 13 -16 13 -23 2 -6 -9 -9 -10 -9 -1 0 7 -6 10 -14 7 -7 -3 -16 3 -20 13
-6 15 -8 15 -16 3 -9 -13 -10 -13 -10 0 0 18 -52 43 -97 45 -19 1 -37 5 -40 9
-3 3 -12 1 -20 -5 -9 -9 -13 -8 -13 0 0 6 -7 11 -15 11 -8 0 -15 5 -15 10 0
17 -97 12 -104 -5 -4 -13 -10 -14 -26 -5 -11 6 -20 8 -20 4 0 -3 -13 8 -30 26
-16 18 -30 27 -30 20 0 -10 -3 -10 -15 0 -9 8 -15 9 -15 2z"/>
</g>
</svg>
